<mxfile host="Electron" modified="2025-05-06T23:56:05.374Z" agent="Mozilla/5.0 (X11; Linux x86_64) AppleWebKit/537.36 (KHTML, like Gecko) draw.io/24.5.3 Chrome/124.0.6367.207 Electron/30.0.6 Safari/537.36" etag="Mf_Q927d79MJ3ZRt1Np5" version="24.5.3" type="device">
  <diagram name="第 1 页" id="Wpn75avzvusXCun9IKQ3">
    <mxGraphModel dx="1384" dy="843" grid="1" gridSize="10" guides="1" tooltips="1" connect="1" arrows="1" fold="1" page="1" pageScale="1" pageWidth="827" pageHeight="1169" math="0" shadow="0">
      <root>
        <mxCell id="0" />
        <mxCell id="1" parent="0" />
        <mxCell id="bM1rMaGwJlwP_Sd9nai7-3" value="" style="edgeStyle=orthogonalEdgeStyle;rounded=0;orthogonalLoop=1;jettySize=auto;html=1;strokeWidth=2;" edge="1" parent="1" source="bM1rMaGwJlwP_Sd9nai7-1" target="bM1rMaGwJlwP_Sd9nai7-2">
          <mxGeometry relative="1" as="geometry" />
        </mxCell>
        <mxCell id="bM1rMaGwJlwP_Sd9nai7-1" value="需求" style="rounded=0;whiteSpace=wrap;html=1;fillColor=#dae8fc;strokeColor=#6c8ebf;" vertex="1" parent="1">
          <mxGeometry x="180" y="180" width="120" height="60" as="geometry" />
        </mxCell>
        <mxCell id="bM1rMaGwJlwP_Sd9nai7-5" value="" style="edgeStyle=orthogonalEdgeStyle;rounded=0;orthogonalLoop=1;jettySize=auto;html=1;strokeWidth=2;" edge="1" parent="1" source="bM1rMaGwJlwP_Sd9nai7-2" target="bM1rMaGwJlwP_Sd9nai7-4">
          <mxGeometry relative="1" as="geometry" />
        </mxCell>
        <mxCell id="bM1rMaGwJlwP_Sd9nai7-22" style="edgeStyle=orthogonalEdgeStyle;rounded=0;orthogonalLoop=1;jettySize=auto;html=1;entryX=0.5;entryY=0;entryDx=0;entryDy=0;exitX=0.5;exitY=0;exitDx=0;exitDy=0;dashed=1;strokeWidth=2;" edge="1" parent="1" source="bM1rMaGwJlwP_Sd9nai7-2" target="bM1rMaGwJlwP_Sd9nai7-1">
          <mxGeometry relative="1" as="geometry">
            <Array as="points">
              <mxPoint x="420" y="140" />
              <mxPoint x="240" y="140" />
            </Array>
          </mxGeometry>
        </mxCell>
        <mxCell id="bM1rMaGwJlwP_Sd9nai7-24" value="澄清不确定性" style="edgeLabel;html=1;align=center;verticalAlign=middle;resizable=0;points=[];" vertex="1" connectable="0" parent="bM1rMaGwJlwP_Sd9nai7-22">
          <mxGeometry x="-0.0609" y="-4" relative="1" as="geometry">
            <mxPoint y="-6" as="offset" />
          </mxGeometry>
        </mxCell>
        <mxCell id="bM1rMaGwJlwP_Sd9nai7-2" value="判断" style="rhombus;whiteSpace=wrap;html=1;rounded=0;" vertex="1" parent="1">
          <mxGeometry x="360" y="170" width="120" height="80" as="geometry" />
        </mxCell>
        <mxCell id="bM1rMaGwJlwP_Sd9nai7-7" value="" style="edgeStyle=orthogonalEdgeStyle;rounded=0;orthogonalLoop=1;jettySize=auto;html=1;strokeWidth=2;" edge="1" parent="1" source="bM1rMaGwJlwP_Sd9nai7-4" target="bM1rMaGwJlwP_Sd9nai7-6">
          <mxGeometry relative="1" as="geometry" />
        </mxCell>
        <mxCell id="bM1rMaGwJlwP_Sd9nai7-4" value="复杂度" style="whiteSpace=wrap;html=1;rounded=0;fillColor=#dae8fc;strokeColor=#6c8ebf;" vertex="1" parent="1">
          <mxGeometry x="550" y="180" width="120" height="60" as="geometry" />
        </mxCell>
        <mxCell id="bM1rMaGwJlwP_Sd9nai7-9" value="" style="edgeStyle=orthogonalEdgeStyle;rounded=0;orthogonalLoop=1;jettySize=auto;html=1;strokeWidth=2;" edge="1" parent="1" source="bM1rMaGwJlwP_Sd9nai7-6" target="bM1rMaGwJlwP_Sd9nai7-8">
          <mxGeometry relative="1" as="geometry" />
        </mxCell>
        <mxCell id="bM1rMaGwJlwP_Sd9nai7-6" value="拆解" style="rhombus;whiteSpace=wrap;html=1;rounded=0;" vertex="1" parent="1">
          <mxGeometry x="555" y="312.5" width="110" height="70" as="geometry" />
        </mxCell>
        <mxCell id="bM1rMaGwJlwP_Sd9nai7-12" value="" style="edgeStyle=orthogonalEdgeStyle;rounded=0;orthogonalLoop=1;jettySize=auto;html=1;strokeWidth=2;" edge="1" parent="1" source="bM1rMaGwJlwP_Sd9nai7-8" target="bM1rMaGwJlwP_Sd9nai7-11">
          <mxGeometry relative="1" as="geometry" />
        </mxCell>
        <mxCell id="bM1rMaGwJlwP_Sd9nai7-8" value="备选架构" style="whiteSpace=wrap;html=1;rounded=0;fillColor=#dae8fc;strokeColor=#6c8ebf;" vertex="1" parent="1">
          <mxGeometry x="550" y="455" width="120" height="60" as="geometry" />
        </mxCell>
        <mxCell id="bM1rMaGwJlwP_Sd9nai7-14" value="" style="edgeStyle=orthogonalEdgeStyle;rounded=0;orthogonalLoop=1;jettySize=auto;html=1;strokeWidth=2;" edge="1" parent="1" source="bM1rMaGwJlwP_Sd9nai7-11" target="bM1rMaGwJlwP_Sd9nai7-13">
          <mxGeometry relative="1" as="geometry" />
        </mxCell>
        <mxCell id="bM1rMaGwJlwP_Sd9nai7-11" value="取舍" style="rhombus;whiteSpace=wrap;html=1;rounded=0;" vertex="1" parent="1">
          <mxGeometry x="360" y="447.5" width="120" height="75" as="geometry" />
        </mxCell>
        <mxCell id="bM1rMaGwJlwP_Sd9nai7-16" value="" style="edgeStyle=orthogonalEdgeStyle;rounded=0;orthogonalLoop=1;jettySize=auto;html=1;strokeWidth=2;" edge="1" parent="1" source="bM1rMaGwJlwP_Sd9nai7-13" target="bM1rMaGwJlwP_Sd9nai7-15">
          <mxGeometry relative="1" as="geometry" />
        </mxCell>
        <mxCell id="bM1rMaGwJlwP_Sd9nai7-13" value="架构方案" style="whiteSpace=wrap;html=1;rounded=0;fillColor=#dae8fc;strokeColor=#6c8ebf;" vertex="1" parent="1">
          <mxGeometry x="180" y="455" width="120" height="60" as="geometry" />
        </mxCell>
        <mxCell id="bM1rMaGwJlwP_Sd9nai7-17" style="edgeStyle=orthogonalEdgeStyle;rounded=0;orthogonalLoop=1;jettySize=auto;html=1;strokeWidth=2;" edge="1" parent="1" source="bM1rMaGwJlwP_Sd9nai7-15" target="bM1rMaGwJlwP_Sd9nai7-1">
          <mxGeometry relative="1" as="geometry" />
        </mxCell>
        <mxCell id="bM1rMaGwJlwP_Sd9nai7-15" value="实现" style="rhombus;whiteSpace=wrap;html=1;rounded=0;" vertex="1" parent="1">
          <mxGeometry x="185" y="320" width="110" height="55" as="geometry" />
        </mxCell>
        <mxCell id="bM1rMaGwJlwP_Sd9nai7-19" style="edgeStyle=orthogonalEdgeStyle;rounded=0;orthogonalLoop=1;jettySize=auto;html=1;entryX=0.5;entryY=1;entryDx=0;entryDy=0;dashed=1;strokeWidth=2;" edge="1" parent="1" source="bM1rMaGwJlwP_Sd9nai7-18" target="bM1rMaGwJlwP_Sd9nai7-2">
          <mxGeometry relative="1" as="geometry" />
        </mxCell>
        <mxCell id="bM1rMaGwJlwP_Sd9nai7-20" style="edgeStyle=orthogonalEdgeStyle;rounded=0;orthogonalLoop=1;jettySize=auto;html=1;entryX=0;entryY=0.5;entryDx=0;entryDy=0;dashed=1;strokeWidth=2;" edge="1" parent="1" source="bM1rMaGwJlwP_Sd9nai7-18" target="bM1rMaGwJlwP_Sd9nai7-6">
          <mxGeometry relative="1" as="geometry" />
        </mxCell>
        <mxCell id="bM1rMaGwJlwP_Sd9nai7-21" style="edgeStyle=orthogonalEdgeStyle;rounded=0;orthogonalLoop=1;jettySize=auto;html=1;dashed=1;strokeWidth=2;" edge="1" parent="1" source="bM1rMaGwJlwP_Sd9nai7-18" target="bM1rMaGwJlwP_Sd9nai7-11">
          <mxGeometry relative="1" as="geometry" />
        </mxCell>
        <mxCell id="bM1rMaGwJlwP_Sd9nai7-18" value="架构设计三原则" style="ellipse;whiteSpace=wrap;html=1;" vertex="1" parent="1">
          <mxGeometry x="360" y="308" width="120" height="80" as="geometry" />
        </mxCell>
        <mxCell id="bM1rMaGwJlwP_Sd9nai7-23" value="高性能、高可用、可拓展" style="text;html=1;align=center;verticalAlign=middle;whiteSpace=wrap;rounded=0;" vertex="1" parent="1">
          <mxGeometry x="680" y="200" width="100" height="15" as="geometry" />
        </mxCell>
      </root>
    </mxGraphModel>
  </diagram>
</mxfile>
